<svg width="27" height="28" viewBox="0 0 27 28" fill="none" xmlns="http://www.w3.org/2000/svg">
<path opacity="0.1" fill-rule="evenodd" clip-rule="evenodd" d="M0.346161 13.9218C0.346161 6.59542 6.28533 0.65625 13.6117 0.65625C20.938 0.65625 26.8772 6.59542 26.8772 13.9218C26.8772 21.2481 20.938 27.1873 13.6117 27.1873C6.28533 27.1873 0.346161 21.2481 0.346161 13.9218Z" fill="white"/>
<path fill-rule="evenodd" clip-rule="evenodd" d="M13.2144 11.4385L13.2422 11.8976L12.7783 11.8414C11.0895 11.6259 9.61413 10.8952 8.36148 9.66805L7.74907 9.05915L7.59132 9.5088C7.25728 10.5111 7.4707 11.5697 8.16662 12.2816C8.53778 12.6751 8.45427 12.7313 7.81402 12.4971C7.59132 12.4222 7.39647 12.3659 7.37791 12.394C7.31295 12.4596 7.53565 13.3121 7.71195 13.6493C7.9532 14.1177 8.44499 14.5767 8.98317 14.8484L9.43783 15.0638L8.89966 15.0732C8.38003 15.0732 8.36148 15.0826 8.41715 15.2793C8.60273 15.8882 9.33577 16.5346 10.1523 16.8156L10.7276 17.0123L10.2265 17.3121C9.48423 17.743 8.61201 17.9866 7.73979 18.0053C7.32223 18.0147 6.97891 18.0521 6.97891 18.0802C6.97891 18.1739 8.11094 18.6985 8.76975 18.9046C10.7462 19.5135 13.0937 19.2512 14.8567 18.2114C16.1094 17.4713 17.3621 16.0006 17.9466 14.5767C18.2621 13.8179 18.5776 12.4315 18.5776 11.7664C18.5776 11.3355 18.6054 11.2793 19.1251 10.7641C19.4313 10.4643 19.7189 10.1364 19.7746 10.0428C19.8674 9.86477 19.8581 9.86477 19.3849 10.024C18.5962 10.3051 18.4848 10.2676 18.8745 9.84604C19.1622 9.54627 19.5055 9.00295 19.5055 8.8437C19.5055 8.81559 19.3663 8.86243 19.2086 8.94674C19.0415 9.04042 18.6704 9.18093 18.392 9.26524L17.891 9.42449L17.4363 9.11536C17.1858 8.94674 16.8332 8.75939 16.6476 8.70318C16.1744 8.57203 15.4506 8.59077 15.0238 8.74065C13.8639 9.1622 13.1309 10.2488 13.2144 11.4385Z" fill="white"/>
</svg>
